<svg xmlns="http://www.w3.org/2000/svg" viewBox="0 0 309.3 236.8"><defs><style>.a{isolation:isolate}.b{fill:#fff}</style></defs><g class="a"><g class="a"><path class="b" d="M0 1.56h43.21c28 0 40.46 16.64 40.46 39.22 0 25.31-16.87 37.81-42.5 37.81H26.33v36.64H0zm37.58 53.51c11.72 0 18.36-5.62 18.36-14.92 0-8.51-5.94-14.92-18-14.92H26.33v29.84zm118.75 60.16l-23.25-36.64h-9.38v36.64H97.34V1.56h44.3c28.05 0 40.63 16.64 40.63 39.22 0 17.26-7.9 28.59-21.1 34.06v.39l26.64 40zm-32.66-60.08h12.35c11.48 0 18.51-5.7 18.51-15 0-8.51-6.17-14.92-18-14.92h-12.86zm68.83 3.28C192.5 24.22 216.33 0 251.02 0c33.9 0 58.28 23.59 58.28 58.43 0 34.69-24.38 58.36-58.28 58.36-34.69 0-58.52-24.22-58.52-58.36zm88.91 0c0-19-12.74-33.43-30.39-33.43-18.05 0-30.63 14.76-30.63 33.43s12.58 33.36 30.63 33.36c17.65 0 30.39-14.45 30.39-33.36z"/></g><g class="a"><path class="b" d="M116.96 121.56v113.67H90.39v-62.66h-.31l-23 41.8H49.92l-23-41.72h-.32v62.58H0V121.56h26.95l31.41 60.23h.47L90 121.56zm15.7 56.87c0-34.21 23.83-58.43 58.51-58.43 33.91 0 58.29 23.59 58.29 58.43s-24.38 58.36-58.29 58.36c-34.68 0-58.51-24.22-58.51-58.36zm88.9 0c0-19-12.73-33.43-30.39-33.43-18 0-30.62 14.76-30.62 33.43s12.58 33.36 30.62 33.36c17.66 0 30.39-14.45 30.39-33.36zm35.71 43.68a14.85 14.85 0 1114.92 14.68 14.8 14.8 0 01-14.92-14.68z"/></g></g></svg>