<svg xmlns="http://www.w3.org/2000/svg" viewBox="0 0 140.69 42.2"><path d="M21.1 0a21.1 21.1 0 1021.1 21.1A21.1 21.1 0 0021.1 0zm9.68 30.43a1.32 1.32 0 01-1.81.44c-5-3-11.19-3.72-18.54-2a1.31 1.31 0 01-.66-2.54h.08c8-1.84 14.93-1.05 20.49 2.35a1.32 1.32 0 01.44 1.81zm2.58-5.75a1.66 1.66 0 01-2.27.55c-5.67-3.49-14.31-4.5-21-2.46a1.65 1.65 0 11-1-3.13h.07c7.67-2.32 17.19-1.2 23.7 2.8a1.65 1.65 0 01.55 2.26zm.22-6c-6.8-4-18-4.41-24.51-2.44a2 2 0 11-1.15-3.77c7.46-2.27 19.84-1.83 27.67 2.82a2 2 0 11-2 3.39zm23.82.78c-3.64-.87-4.29-1.48-4.29-2.76s1.14-2 2.84-2a8.29 8.29 0 015 1.89.23.23 0 00.34 0L63 14a.25.25 0 000-.32 10.83 10.83 0 00-7-2.43c-3.94 0-6.69 2.36-6.69 5.74 0 3.62 2.37 4.9 6.47 5.9 3.49.8 4.07 1.47 4.07 2.67s-1.19 2.16-3.1 2.16a8.31 8.31 0 01-5.8-2.4.21.21 0 00-.17-.05.21.21 0 00-.16.08l-2 2.38a.24.24 0 000 .33 11.89 11.89 0 008 3.08c4.23 0 7-2.32 7-5.9 0-3-1.8-4.7-6.24-5.78zm15.84-3.6a5.75 5.75 0 00-4.59 2.21v-1.65a.24.24 0 00-.24-.24h-3.26a.24.24 0 00-.24.24V35a.24.24 0 00.24.24h3.26a.23.23 0 00.24-.24v-5.89a5.88 5.88 0 004.59 2.08c3.41 0 6.87-2.63 6.87-7.65s-3.45-7.66-6.87-7.66zm3.08 7.66c0 2.55-1.58 4.34-3.84 4.34a4.37 4.37 0 010-8.69c2.22.02 3.84 1.83 3.84 4.37zM89 15.88a7.77 7.77 0 10.08 0zm0 12a4.14 4.14 0 01-4.11-4.18 1.21 1.21 0 010-.19 4 4 0 013.77-4.3h.27a4.17 4.17 0 014.14 4.19 1.09 1.09 0 000 .18 4.06 4.06 0 01-3.8 4.31zm17.2-11.72h-3.6v-3.65a.24.24 0 00-.24-.24h-3.29a.24.24 0 00-.24.24v3.67h-1.56a.24.24 0 00-.24.24v2.8a.24.24 0 00.24.24h1.57v7.25c0 2.94 1.46 4.42 4.34 4.42a5.93 5.93 0 003-.76.22.22 0 00.12-.21v-2.67a.23.23 0 00-.24-.23.18.18 0 00-.1 0 4 4 0 01-1.92.46c-1 0-1.51-.47-1.51-1.54v-6.72h3.59a.24.24 0 00.24-.24v-2.8a.25.25 0 00-.23-.24zm12.5 0v-.46c0-1.32.51-1.91 1.65-1.91a5.5 5.5 0 011.84.34.24.24 0 00.3-.16.15.15 0 000-.07v-2.71a.25.25 0 00-.17-.23 8.89 8.89 0 00-2.71-.39c-3 0-4.6 1.7-4.6 4.9v.69h-1.57a.24.24 0 00-.24.24v2.82a.24.24 0 00.24.24H115v11.19a.24.24 0 00.24.24h3.26a.24.24 0 00.24-.24V19.46h3l4.67 11.19c-.53 1.17-1 1.41-1.76 1.41a3.75 3.75 0 01-1.8-.51.25.25 0 00-.19 0 .24.24 0 00-.15.13l-1.1 2.42a.24.24 0 00.1.31 6.84 6.84 0 003.48.89c2.41 0 3.74-1.12 4.92-4.14l5.65-14.62a.24.24 0 00-.13-.31H132a.22.22 0 00-.22.16l-3.48 9.93-3.81-9.94a.22.22 0 00-.22-.15zm-7.25 0h-3.26a.24.24 0 00-.24.24v14.25a.24.24 0 00.24.24h3.26a.24.24 0 00.24-.24V16.42a.24.24 0 00-.24-.24zm-1.64-6.46a2.34 2.34 0 102.34 2.3 2.34 2.34 0 00-2.34-2.3zm28.57 11.06a2.29 2.29 0 11.05 0zm0-4.38a2.08 2.08 0 102 2.09 2.06 2.06 0 00-2-2.07zm.5 2.3l.65.91H139l-.59-.83h-.5v.83h-.46v-2.41h1.08c.56 0 .93.29.93.77a.71.71 0 01-.56.73zm-.38-1.09h-.6v.77h.6c.3 0 .47-.15.47-.38s-.16-.39-.45-.39z" fill="#606060"/></svg>