<svg xmlns="http://www.w3.org/2000/svg" xmlns:xlink="http://www.w3.org/1999/xlink" width="208.772" height="520.257"><defs><linearGradient id="b" x1=".913" y1=".154" x2=".167" y2=".951" gradientUnits="objectBoundingBox"><stop offset="0" stop-color="#8338ec"/><stop offset="1" stop-color="#2196f3"/></linearGradient><linearGradient id="a" x1=".255" y1=".138" x2=".712" y2=".85" gradientUnits="objectBoundingBox"><stop offset="0" stop-color="#ff14b1"/><stop offset="1" stop-color="#e521f3"/></linearGradient><linearGradient id="c" x1=".312" y1=".282" x2=".5" y2="1" xlink:href="#a"/></defs><g data-name="Group 36"><path data-name="Path 27" d="M263 88l-66 143H0z" transform="rotate(90 140.949 140.949)" fill="url(#b)"/><path data-name="Path 28" d="M40.32 197L192 346H0z" transform="rotate(101 94.775 268.35)" fill="url(#a)"/><path data-name="Path 29" d="M16.691 197l62.789 69.577H0z" transform="rotate(160.99 56.663 332.776)" fill="url(#c)"/><path data-name="Path 33" d="M10.5 159.054l115.04 56.2L0 213z" transform="rotate(40 -215.687 293.76)" fill="url(#b)"/><path data-name="Path 34" d="M6.814 144L26.4 175.246 0 188z" transform="rotate(27 -614.09 568.469)" fill="url(#b)"/><path data-name="Path 35" d="M13.413 197l50.458 23.764H0z" transform="rotate(61 152.827 310.099)" fill="url(#c)"/></g></svg>